<?xml version="1.0" encoding="UTF-8"?>
<svg enable-background="new 0 0 75.889 75.889" version="1.1" viewBox="0 0 75.889 75.889" xml:space="preserve" xmlns="http://www.w3.org/2000/svg">
<path d="m10.046 65.9c2e-3 0.183 5e-3 0.318 7e-3 0.408 1e-3 0.053-9e-3 0.104-0.012 0.158 0.122 3.01 2.603 5.422 5.642 5.422h50.186v-5.527c0-1.104 0.896-2 2-2s2 0.896 2 2v7.527c0 1.104-0.896 2-2 2h-52.488c-0.104 0-0.204-0.015-0.305-0.031-5.04-0.314-9.047-4.504-9.047-9.623 0-0.117 0.014-0.229 0.018-0.346-0.062-5.939 0-51.112 7e-3 -56.027-8e-3 -0.07-0.021-0.137-0.021-0.208 0-5.323 4.33-9.653 9.653-9.653h0.017v46.468c0 0.536 0.179 1.025 0.465 1.271s0.63 0.205 0.891-0.104l7.033-8.304 6.66 8.283c0.151 0.188 0.332 0.285 0.514 0.285 0.132 0 0.264-0.051 0.385-0.152 0.291-0.243 0.475-0.738 0.475-1.28v-46.467h35.741c1.104 0 2 0.896 2 2v56.527c0 1.104-0.896 2-2 2-0.012 0-0.021-4e-3 -0.033-4e-3 -0.147 0.035-0.301 0.059-0.458 0.059h-51.693c-3.004 0-5.462 2.357-5.637 5.318z"/>
</svg>
