<?xml version="1.0" encoding="UTF-8"?>
<svg enable-background="new 0 0 489.41 489.41" version="1.1" viewBox="0 0 489.41 489.41" xml:space="preserve" xmlns="http://www.w3.org/2000/svg">
		<path d="m256.71 222.7c139.6 0 205-22.6 205-70.8 0-59.1-93.7-108.9-205-108.9-110.8 0-205 49.8-205 108.9 0 6.7-15.8 70.8 205 70.8zm76.2-140c1.2-5.4 6.6-9.3 12.1-8.2 10.1 1.9 19.4 6.2 27.2 12.8 4.3 3.9 4.7 10.1 1.2 14.4-1.9 2.3-7.8 5.9-14.4 1.2-5.1-4.3-10.9-7-17.5-8.2-5.9-1.1-9.4-6.5-8.6-12zm-14.4 60.7c2.3-5.1 8.6-7.4 13.6-5.1 5.4 2.3 10.9 4.7 16.7 6.2 5.4 1.6 8.6 7.4 7 12.8-1.2 4.7-5.9 8.3-12.4 7-6.6-1.9-13.2-4.3-19.4-7.4-5.5-2.2-7.8-8.5-5.5-13.5zm-84 1.5c3.5-4.7 9.7-5.4 14.4-1.9 3.1 2.7 7 4.3 11.3 4.7 5.8 0.8 9.7 5.8 8.9 11.3-0.4 5.4-5.3 9.8-11.3 9.3-8.2-0.8-15.6-3.9-21.8-8.9-4.2-3.6-5-10.2-1.5-14.5zm-38.1-52.8c0.4-5.4 5.4-9.7 10.9-9.3l15.2 1.2c5.8 0.4 10.1 5.4 9.7 10.9-0.4 5.4-5.5 10.2-10.9 9.7l-15.2-1.6c-5.8-0.4-10.1-5.5-9.7-10.9zm-71.2 29.9c7.4-3.1 15.6-4.7 23.7-4.7 5.8 0 10.1 4.7 10.1 10.5s-4.7 10.1-10.5 10.1c-5.1 0-10.5 1.2-15.2 3.1-1.2 0.4-9.2 1.3-13.2-5.4-3-5.1 0-11.3 5.1-13.6z"/>
		<path d="m456.21 335.5s-66 45.1-199.1 43.6c-130.6-1.5-199.9-43.9-199.9-43.9-17.1 10.9-26.4 22.9-26.4 34.6 0 36.2 92.6 76.6 226 76.6 133 0 226-40.4 226-76.6-1-14.1-13.8-25.7-26.6-34.3z"/>
		<path d="m175.01 286.9c-16.5 13.5-40.6 22.5-56.8-1.9-1.2-1.6-2.7-3.9-3.9-5.1-0.8 0.4-2.7 1.9-3.9 3.1-9.6 10.5-22.5 11.6-39.3 1.9-3.5 8.2-8.9 14.9-15.9 20.2 0 0 53.1 59.5 227.1 53.3 0 0 151-7.9 177.7-57.9-4.5-0.6-21.7-7.1-29.6-5.4-17.3 6.7-28.8-0.4-31.5-1.9-1.2-0.8-7.4-5-16.7 0-11.9 8-51.3-1.2-51.3-1.2l-29.6 59.9c-1.6 2.7-3.9 4.7-7 5.4-4.2 1-7-0.4-8.9-1.9-3.8-2.8-90.1-75.1-99.2-75.1-0.3 0-2.9 0.2-11.2 6.6z"/>
		<path d="m463.91 197.1c-36.9 39.7-126.8 45.9-207.7 45.9-82.1 0-173.5-6.2-209.6-47.8-15.9 9.8-19.4 23.3-17.5 25.3 3.9 3.9 3.6 9.5 0.8 13.6-7 10-27.2 28.3-29.9 41.6-0.5 2.3 14 21.4 15.2 22.2 8.7 0.8 31-6.6 35.4-17.5 1.9-3.5 9.7-24 35.4-11.3 3.9 1.9 5.8 1.9 5.8 1.9 1.2 0 10.3-12.5 22.6-12.4 13.7-0.6 21.6 17.6 24.1 19.1 7.4 5.1 25.1-8.7 30.7-13.2 3.1-1.9 15.9-11.5 32.3-0.8 1.9 1.2 8.8 5.7 17.9-0.4 0 0 12.9-7.4 40.4-5.4 15.2 1.2 45.6 4.7 86.3 14.8 8.1 2 16.7 3.1 23.3 1.6 5.2-0.6 17.1-5.7 26.8-5.2 4.5 0.2 12.7 3.7 18 7.1 15.1-8.1 42 0.8 42 0.8 15 4.8 26.3 6.3 32.7-12.4 3.7-27.8-14.1-55.1-25-67.5z"/>
		<path d="m310.31 288.1s-59.7-16.4-82.5-5.1l60.7 48.6 21.8-43.5z"/>
</svg>
