<?xml version="1.0" encoding="UTF-8"?>
<svg enable-background="new 0 0 206.7 206.7" version="1.1" viewBox="0 0 206.7 206.7" xml:space="preserve" xmlns="http://www.w3.org/2000/svg">
<path d="m159.87 191.07v10.629c0 2.762-2.238 5-5 5h-103.03c-2.762 0-5-2.238-5-5v-10.629h113.03zm-5-164.02c-2.299 0-4.609 0.162-6.906 0.484-8.422-16.853-25.515-27.533-44.609-27.533s-36.189 10.68-44.611 27.533c-2.297-0.322-4.607-0.484-6.906-0.484-27.516 0-49.901 22.386-49.901 49.901 0 25.828 19.726 47.136 44.901 49.652v54.469h14.378v-51.5c0-2.762 2.238-5 5-5s5 2.238 5 5v51.5h27.138v-51.5c0-2.762 2.238-5 5-5s5 2.238 5 5v51.5h27.139v-51.5c0-2.762 2.238-5 5-5s5 2.238 5 5v51.5h14.378v-54.469c25.176-2.517 44.901-23.824 44.901-49.652 0-27.515-22.386-49.901-49.902-49.901z"/>
</svg>
