<?xml version="1.0" encoding="UTF-8"?>
<svg enable-background="new 0 0 512 512" version="1.1" viewBox="0 0 512 512" xml:space="preserve" xmlns="http://www.w3.org/2000/svg">
		<path d="m22.2 340.5c-11.8 11.7-12 30.8-0.3 42.7l103.8 105.2c11.7 11.8 30.8 12 42.7 0.3l14.4-14.2-146.2-148.2-14.4 14.2z"/>
		<path d="m275.5 46.3l-46.9 46.3c-11.8 11.7-12 30.8-0.3 42.7l61.3 62.1-92.7 91.5-61.3-62.1c-11.7-11.8-30.8-12-42.7-0.3l-46.9 46.2c-11.8 11.7-12 30.8-0.3 42.7l148.1 150c11.7 11.8 30.8 12 42.7 0.3l46.9-46.3c11.8-11.7 12-30.8 0.3-42.7l-61.3-62.1 92.7-91.5 61.3 62.1c11.7 11.8 30.8 12 42.7 0.3l46.9-46.3c11.8-11.7 12-30.8 0.3-42.7l-148.1-150c-11.8-11.8-30.9-11.9-42.7-0.2z"/>
		<path d="m343.6 23.3l-14.4 14.2 146.3 148.2 14.4-14.2c11.8-11.7 12-30.8 0.3-42.7l-103.9-105.2c-11.7-11.9-30.9-12-42.7-0.3z"/>
</svg>
