<?xml version="1.0" encoding="utf-8"?>
<!-- Generator: Adobe Illustrator 21.0.0, SVG Export Plug-In . SVG Version: 6.00 Build 0)  -->
<svg version="1.1" id="Layer_1" xmlns="http://www.w3.org/2000/svg" xmlns:xlink="http://www.w3.org/1999/xlink" x="0px" y="0px"
	 viewBox="0 0 512 512" style="enable-background:new 0 0 512 512;" xml:space="preserve">
<g>
	<g>
		<path d="M22.2,340.5c-11.8,11.7-12,30.8-0.3,42.7l103.8,105.2c11.7,11.8,30.8,12,42.7,0.3l14.4-14.2L36.6,326.3L22.2,340.5z"/>
	</g>
</g>
<g>
	<g>
		<path d="M275.5,46.3l-46.9,46.3c-11.8,11.7-12,30.8-0.3,42.7l61.3,62.1l-92.7,91.5l-61.3-62.1c-11.7-11.8-30.8-12-42.7-0.3
			L46,272.7c-11.8,11.7-12,30.8-0.3,42.7l148.1,150c11.7,11.8,30.8,12,42.7,0.3l46.9-46.3c11.8-11.7,12-30.8,0.3-42.7l-61.3-62.1
			l92.7-91.5l61.3,62.1c11.7,11.8,30.8,12,42.7,0.3l46.9-46.3c11.8-11.7,12-30.8,0.3-42.7l-148.1-150
			C306.4,34.7,287.3,34.6,275.5,46.3z"/>
	</g>
</g>
<g>
	<g>
		<path d="M343.6,23.3l-14.4,14.2l146.3,148.2l14.4-14.2c11.8-11.7,12-30.8,0.3-42.7L386.3,23.6C374.6,11.7,355.4,11.6,343.6,23.3z"
			/>
	</g>
</g>
</svg>
