<?xml version="1.0" encoding="iso-8859-1"?>
<!-- Generator: Adobe Illustrator 19.0.0, SVG Export Plug-In . SVG Version: 6.00 Build 0)  -->
<svg version="1.1" id="Capa_1" xmlns="http://www.w3.org/2000/svg" xmlns:xlink="http://www.w3.org/1999/xlink" x="0px" y="0px"
	 viewBox="0 0 489.41 489.41" style="enable-background:new 0 0 489.41 489.41;" xml:space="preserve">
<g>
	<g>
		<path d="M256.713,222.705c139.6,0,205-22.6,205-70.8c0-59.1-93.7-108.9-205-108.9c-110.8,0-205,49.8-205,108.9
			C51.713,158.605,35.913,222.705,256.713,222.705z M332.913,82.705c1.2-5.4,6.6-9.3,12.1-8.2c10.1,1.9,19.4,6.2,27.2,12.8
			c4.3,3.9,4.7,10.1,1.2,14.4c-1.9,2.3-7.8,5.9-14.4,1.2c-5.1-4.3-10.9-7-17.5-8.2C335.613,93.605,332.113,88.205,332.913,82.705z
			 M318.513,143.405c2.3-5.1,8.6-7.4,13.6-5.1c5.4,2.3,10.9,4.7,16.7,6.2c5.4,1.6,8.6,7.4,7,12.8c-1.2,4.7-5.9,8.3-12.4,7
			c-6.6-1.9-13.2-4.3-19.4-7.4C318.513,154.705,316.213,148.405,318.513,143.405z M234.513,144.905c3.5-4.7,9.7-5.4,14.4-1.9
			c3.1,2.7,7,4.3,11.3,4.7c5.8,0.8,9.7,5.8,8.9,11.3c-0.4,5.4-5.3,9.8-11.3,9.3c-8.2-0.8-15.6-3.9-21.8-8.9
			C231.813,155.805,231.013,149.205,234.513,144.905z M196.413,92.105c0.4-5.4,5.4-9.7,10.9-9.3l15.2,1.2c5.8,0.4,10.1,5.4,9.7,10.9
			c-0.4,5.4-5.5,10.2-10.9,9.7l-15.2-1.6C200.313,102.605,196.013,97.505,196.413,92.105z M125.213,122.005
			c7.4-3.1,15.6-4.7,23.7-4.7c5.8,0,10.1,4.7,10.1,10.5c0,5.8-4.7,10.1-10.5,10.1c-5.1,0-10.5,1.2-15.2,3.1
			c-1.2,0.4-9.2,1.3-13.2-5.4C117.113,130.505,120.113,124.305,125.213,122.005z"/>
		<path d="M456.213,335.505c0,0-66,45.1-199.1,43.6c-130.6-1.5-199.9-43.9-199.9-43.9c-17.1,10.9-26.4,22.9-26.4,34.6
			c0,36.2,92.6,76.6,226,76.6c133,0,226-40.4,226-76.6C481.813,355.705,469.013,344.105,456.213,335.505z"/>
		<path d="M175.013,286.905c-16.5,13.5-40.6,22.5-56.8-1.9c-1.2-1.6-2.7-3.9-3.9-5.1c-0.8,0.4-2.7,1.9-3.9,3.1
			c-9.6,10.5-22.5,11.6-39.3,1.9c-3.5,8.2-8.9,14.9-15.9,20.2c0,0,53.1,59.5,227.1,53.3c0,0,151-7.9,177.7-57.9
			c-4.5-0.6-21.7-7.1-29.6-5.4c-17.3,6.7-28.8-0.4-31.5-1.9c-1.2-0.8-7.4-5-16.7,0c-11.9,8-51.3-1.2-51.3-1.2l-29.6,59.9
			c-1.6,2.7-3.9,4.7-7,5.4c-4.2,1-7-0.4-8.9-1.9c-3.8-2.8-90.1-75.1-99.2-75.1C185.913,280.305,183.313,280.505,175.013,286.905z"/>
		<path d="M463.913,197.105c-36.9,39.7-126.8,45.9-207.7,45.9c-82.1,0-173.5-6.2-209.6-47.8c-15.9,9.8-19.4,23.3-17.5,25.3
			c3.9,3.9,3.6,9.5,0.8,13.6c-7,10-27.2,28.3-29.9,41.6c-0.5,2.3,14,21.4,15.2,22.2c8.7,0.8,31-6.6,35.4-17.5
			c1.9-3.5,9.7-24,35.4-11.3c3.9,1.9,5.8,1.9,5.8,1.9c1.2,0,10.3-12.5,22.6-12.4c13.7-0.6,21.6,17.6,24.1,19.1
			c7.4,5.1,25.1-8.7,30.7-13.2c3.1-1.9,15.9-11.5,32.3-0.8c1.9,1.2,8.8,5.7,17.9-0.4c0,0,12.9-7.4,40.4-5.4
			c15.2,1.2,45.6,4.7,86.3,14.8c8.1,2,16.7,3.1,23.3,1.6c5.2-0.6,17.1-5.7,26.8-5.2c4.5,0.2,12.7,3.7,18,7.1c15.1-8.1,42,0.8,42,0.8
			c15,4.8,26.3,6.3,32.7-12.4C492.613,236.805,474.813,209.505,463.913,197.105z"/>
		<path d="M310.313,288.105c0,0-59.7-16.4-82.5-5.1l60.7,48.6L310.313,288.105z"/>
	</g>
</g>
<g>
</g>
<g>
</g>
<g>
</g>
<g>
</g>
<g>
</g>
<g>
</g>
<g>
</g>
<g>
</g>
<g>
</g>
<g>
</g>
<g>
</g>
<g>
</g>
<g>
</g>
<g>
</g>
<g>
</g>
</svg>
