<?xml version="1.0" encoding="UTF-8"?>
<svg enable-background="new 0 0 510 510" version="1.1" viewBox="0 0 510 510" xml:space="preserve" xmlns="http://www.w3.org/2000/svg">
		<path d="m459 0h-408c-28.05 0-51 22.95-51 51v408c0 28.05 22.95 51 51 51h408c28.05 0 51-22.95 51-51v-408c0-28.05-22.95-51-51-51zm-306 433.5h-76.5v-229.5h76.5v229.5zm-38.25-272.85c-25.5 0-45.9-20.4-45.9-45.9s20.4-45.9 45.9-45.9 45.9 20.4 45.9 45.9-20.4 45.9-45.9 45.9zm318.75 272.85h-76.5v-135.15c0-20.399-17.85-38.25-38.25-38.25s-38.25 17.851-38.25 38.25v135.15h-76.5v-229.5h76.5v30.6c12.75-20.4 40.8-35.7 63.75-35.7 48.45 0 89.25 40.8 89.25 89.25v145.35z"/>
</svg>
