<?xml version="1.0" encoding="UTF-8"?>
<svg enable-background="new 0 0 25.726 25.726" version="1.1" viewBox="0 0 25.726 25.726" xml:space="preserve" xmlns="http://www.w3.org/2000/svg">
		<circle cx="3.35" cy="2.813" r="2.813" fill="#030104"/>
		<path d="m5.018 11.613l9.561 9.56c-1.177-0.019-2.352-0.225-3.461-0.667-0.445-0.084-2.235-0.374-2.918 0.309-1.563 1.563-2.991 3.697-3.773 4.479-0.781 0.781-1.89 0.456-2.938-0.592-1.049-1.049-1.35-2.18-0.592-2.938s2.916-2.209 4.48-3.773c0.716-0.717 0.344-2.699 0.287-2.979-0.427-1.091-0.626-2.244-0.646-3.399zm17.39-7.831c-4.649-4.65-10.759-3.023-14.563 0.782-1.409 1.407-2.294 3.138-2.659 4.952l11.485 11.486c1.814-0.365 3.546-1.248 4.953-2.656 3.806-3.806 5.436-9.913 0.784-14.564z" fill="#030104"/>
</svg>
