<?xml version="1.0" encoding="UTF-8"?>
<svg width="400.16px" height="400.16px" enable-background="new 0 0 400.156 400.155" version="1.1" viewBox="0 0 400.156 400.155" xml:space="preserve" xmlns="http://www.w3.org/2000/svg">
<path d="m396.31 49.545c6.088-18.271 4.949-32.354-3.432-42.255-9.897-8.376-23.983-9.514-42.258-3.434-18.273 6.091-34.643 16.368-49.111 30.833l-45.679 45.683-189.86-45.394c-3.046-0.953-5.901-0.192-8.564 2.282l-36.547 36.545c-2.091 2.096-2.95 4.665-2.568 7.71 0.571 3.049 2.19 5.33 4.854 6.854l145.04 79.656-73.948 73.948-55.388-15.128c-0.38-0.192-1.139-0.288-2.282-0.288-2.666 0-4.853 0.855-6.567 2.57l-27.407 27.692c-1.903 2.279-2.758 4.66-2.568 7.132 0.378 3.045 1.615 5.235 3.711 6.57l71.946 53.957 53.959 71.944c1.714 2.098 3.999 3.329 6.854 3.716h0.571c2.666 0 4.853-0.855 6.567-2.566l27.406-27.404c2.474-2.669 3.236-5.619 2.286-8.854l-15.133-55.388 73.947-73.953 79.66 145.05c1.14 2.475 3.138 3.997 5.995 4.569 0.568 0.191 1.235 0.284 1.999 0.284 2.279 0 4.09-0.572 5.421-1.712l36.552-27.407c3.23-2.663 4.373-5.801 3.426-9.418l-45.68-198.71 45.967-45.965c14.462-14.471 24.739-30.843 30.83-49.114z"/>
</svg>
